<?xml version="1.0" encoding="utf-8"?>
<!-- Generator: Adobe Illustrator 20.1.0, SVG Export Plug-In . SVG Version: 6.00 Build 0)  -->
<svg version="1.1" xmlns="http://www.w3.org/2000/svg" xmlns:xlink="http://www.w3.org/1999/xlink" x="0px" y="0px"
	 viewBox="0 0 220.56378 108.19843" style="enable-background:new 0 0 220.56378 108.19843;" xml:space="preserve">
<style type="text/css">
	.st0{fill:#233567;}
	.st1{fill:#FFFFFF;}
	.st2{fill:url(#XMLID_122_);}
	.st3{fill:url(#XMLID_129_);}
	.st4{fill:#AD8C45;}
	.st5{fill:url(#XMLID_130_);}
	.st6{opacity:0.55;fill:url(#XMLID_133_);}
	.st7{fill:#A88D41;}
	.st8{fill:#8F6200;}
	.st9{fill:#E0C778;}
	.st10{fill:url(#XMLID_134_);}
	.st11{fill:url(#XMLID_135_);}
	.st12{fill:url(#XMLID_136_);}
	.st13{fill-rule:evenodd;clip-rule:evenodd;fill:#FFFFFF;}
	.st14{fill:#878787;}
	.st15{fill:#F39200;}
	.st16{fill:#009BC3;}
	.st17{fill:#749C4B;}
	.st18{fill:#8B5A1D;}
	.st19{fill:#A00062;}
	.st20{fill:url(#XMLID_137_);}
	.st21{opacity:0.7;}
	.st22{fill:url(#XMLID_138_);}
	.st23{fill:url(#XMLID_139_);}
	.st24{opacity:0.65;}
	.st25{fill:url(#XMLID_141_);}
	.st26{fill:url(#XMLID_142_);}
	.st27{fill:url(#SVGID_1_);}
	.st28{fill:url(#Swoosh_Highlight_4_);}
	.st29{fill:none;}
	.st30{fill:url(#XMLID_143_);}
	.st31{fill:url(#XMLID_144_);}
	.st32{fill:url(#XMLID_145_);}
	.st33{fill:url(#XMLID_146_);}
	.st34{fill:url(#XMLID_147_);}
	.st35{fill:url(#SVGID_2_);}
	.st36{fill:url(#Swoosh_Highlight_5_);}
	.st37{clip-path:url(#XMLID_148_);fill:url(#XMLID_149_);}
	.st38{clip-path:url(#XMLID_150_);fill:url(#XMLID_151_);}
	.st39{clip-path:url(#XMLID_152_);fill:url(#XMLID_153_);}
	.st40{clip-path:url(#XMLID_154_);fill:url(#XMLID_155_);}
	.st41{clip-path:url(#XMLID_156_);fill:url(#XMLID_157_);}
	.st42{fill:#D64A15;}
	.st43{fill:url(#XMLID_159_);}
	.st44{fill:url(#XMLID_160_);}
	.st45{fill:url(#XMLID_161_);}
	.st46{fill:url(#XMLID_182_);}
	.st47{fill:url(#XMLID_183_);}
	.st48{fill:url(#SVGID_3_);}
	.st49{fill:url(#Swoosh_Highlight_6_);}
	.st50{fill:url(#XMLID_184_);}
	.st51{fill:url(#XMLID_185_);}
	.st52{fill:url(#XMLID_186_);}
	.st53{fill:url(#XMLID_187_);}
	.st54{fill:url(#XMLID_188_);}
	.st55{fill:#4A2683;}
	.st56{fill:#0D4E59;}
	.st57{fill:#AE2812;}
	.st58{fill:#005496;}
	.st59{fill:#C3002F;}
	.st60{fill:#777375;}
	.st61{fill:#4F9E34;}
	.st62{fill:#D96930;}
	.st63{fill:#242E5C;}
	.st64{fill:#717472;}
	.st65{fill:#D0043C;}
</style>
<g id="black_x5F_bg">
</g>
<g id="logos">
	<g>
		<path id="XMLID_93_" class="st61" d="M137.44946,22.54573c-1.36447-7.24214-8.86385-5.91262-10.92977-5.47793
			c-3.80529,0.80065-7.42327,1.66453-10.87152,2.58311c1.80206-5.76297,3.88477-11.36559,7.07784-18.9591
			c-1.32375-0.34971-2.8144-0.57025-4.49997-0.36224c-1.90543,0.23513-4.03906,1.21238-5.312,3.62911
			c-2.04147,3.87579-4.24845,9.96715-6.68019,18.46997c-5.02736,1.63521-9.64236,3.39604-13.89458,5.25477
			c2.23503-7.97006,5.1554-16.00859,8.26279-22.75154c-0.65097-0.20888-1.89935-0.41858-2.80089-0.41858
			c-3.4424,0-5.44337,1.3002-7.00529,4.67945c-2.4363,5.25488-5.32197,14.11074-7.47825,22.84675
			c-4.19415,2.23294-7.98457,4.56081-11.43901,6.94431c-2.14417,1.47939-2.66811,3.41938-2.79396,4.30495
			c-0.09695,0.61709,0.02975,1.91183,0.44581,2.6987c2.34026-1.39864,6.52991-3.76448,12.1243-6.48388
			c-1.11938,5.54809-2.42329,13.24624-2.4496,19.11717c-0.01324,2.99794,1.83428,4.75603,4.47569,4.75603
			c0.72758,0,2.16473-0.20882,2.3259-0.37492c0.76369-10.28897,2.8215-20.69889,4.37379-27.48228
			c4.16306-1.78193,8.77367-3.58861,13.73359-5.28156c-0.1201,0.46297-0.23946,0.91875-0.36063,1.39259
			c-3.82692,14.96535-6.3933,31.09514-6.18262,35.47279c0.17075,3.54743,2.78094,4.9065,4.99598,4.9065
			c0.69294,0,2.11127-0.19097,2.6013-0.41174c0.93556-10.97022,3.9696-27.58633,5.59101-34.02131
			c0.96706-3.83734,1.82021-7.16567,2.65566-10.23723C120.94778,25.21742,129.05209,23.48836,137.44946,22.54573z"/>
		<path id="XMLID_92_" class="st61" d="M80.51218,81.74607c-1.31557,0-2.59798,1.20048-2.59799,2.54311
			c0,0.99747,0.71209,1.68391,1.68002,1.68391c1.31546,0,2.62802-1.19865,2.62803-2.54113
			C82.22223,82.43823,81.48006,81.74607,80.51218,81.74607z"/>
		<path id="XMLID_91_" class="st61" d="M71.54001,82.92418c-0.73704,3.59474-3.08109,14.91933-3.08109,14.91933
			c-0.14602,0.62306-0.98531,3.87918,2.42191,3.87918h0.5155l4.47695-21.69772
			C75.87328,80.02498,72.27094,79.35921,71.54001,82.92418z"/>
		<path id="XMLID_90_" class="st61" d="M76.86136,90.47642c-0.75366,3.51514-1.52082,7.3671-1.52082,7.3671
			c-0.13869,0.62306-0.97935,3.87918,2.43027,3.87918h0.50404l2.91056-14.10455
			C81.0518,87.60081,77.60344,87.0153,76.86136,90.47642z"/>
		<path id="XMLID_87_" class="st61" d="M61.51236,87.3726c-1.99877,0-3.76777,0.65627-5.10801,1.77209
			c-2.11153,1.70956-3.33917,4.53409-3.33918,7.52727c-0.00001,3.33675,2.28326,5.05081,5.45155,5.05081
			c1.99773,0,3.76571-0.65804,5.103-1.77164c2.11142-1.71001,3.34005-4.55829,3.34006-7.56071
			C66.95979,89.05475,64.67553,87.3726,61.51236,87.3726z M61.36527,97.86839c-0.62826,0.80119-1.42422,1.34538-2.36612,1.34538
			c-1.51431,0-2.11263-1.05779-2.11263-2.54182c0.00001-1.59794,0.59835-3.96584,1.77211-5.4459
			c0.62406-0.80119,1.45724-1.34355,2.40028-1.34355c1.50816,0,2.07526,1.05801,2.07526,2.53915
			C63.13417,94.02225,62.53904,96.39054,61.36527,97.86839z"/>
		<path id="XMLID_86_" class="st61" d="M134.52837,81.98854c-0.56349,2.63613-3.2715,15.85275-3.2715,15.85275
			c-0.17119,0.75922-0.91978,3.8814,2.42447,3.8814h0.5164l4.6355-22.5228
			C137.95099,79.04324,135.15399,79.06171,134.52837,81.98854z"/>
		<path id="XMLID_85_" class="st61" d="M147.86162,87.37253c-1.80821,0-3.35339,0.81561-4.34111,1.91165
			c0,0-0.13054-2.74314-3.75267-1.65199c0.65466,1.91943,0.29736,2.59549-0.43811,6.4675l-0.7677,3.74382
			c-0.13197,0.64529-0.97935,3.87919,2.43027,3.87919c0.17976,0,0.50404,0,0.50404,0l1.34595-6.50498
			c0.37357-1.74255,1.06973-5.05257,3.70813-5.05257c1.31119,0,1.98268,0.81633,1.5713,2.81834l-1.00124,4.85475
			c-0.14293,0.62299-1.00505,3.88445,2.42529,3.88445h0.5063l1.83443-8.88411
			C152.70122,89.03911,150.72676,87.37253,147.86162,87.37253z"/>
		<path id="XMLID_84_" class="st61" d="M49.65647,82.15186c-0.16945,0.82422-0.54564,2.62332-1.15628,5.57224l-6.29447,1.25348
			l1.84804-8.95261c-0.57211-0.10275-3.69283-0.35134-4.33327,2.8992c-0.20037,1.0171-3.08867,14.91887-3.08867,14.91887
			c-0.14528,0.72421-0.98823,3.87966,2.41708,3.87966h0.52293l1.81885-8.79531l6.29702-1.2524
			c-0.6263,3.02358-1.27966,6.16814-1.27966,6.16814c-0.13869,0.62573-0.97922,3.87963,2.42925,3.87963h0.51127l4.65504-22.52286
			C54.0036,79.19991,50.39577,78.55437,49.65647,82.15186z"/>
		<path id="XMLID_83_" class="st61" d="M163.3195,87.37253c-1.80821,0-3.35339,0.81561-4.34111,1.91165
			c0,0-0.13054-2.74314-3.75267-1.65199c0.65466,1.91943,0.29736,2.59549-0.43811,6.4675l-0.7677,3.74382
			c-0.13197,0.64529-0.97935,3.87919,2.43027,3.87919c0.17976,0,0.50404,0,0.50404,0l1.34595-6.50498
			c0.37357-1.74255,1.06973-5.05257,3.70813-5.05257c1.31119,0,1.98268,0.81633,1.5713,2.81834l-1.00125,4.85475
			c-0.14291,0.62299-1.00504,3.88445,2.42531,3.88445h0.5063l1.83443-8.88411
			C168.1591,89.03911,166.18465,87.37253,163.3195,87.37253z"/>
		<path id="XMLID_80_" class="st61" d="M90.91883,95.73199c-0.22653,1.02671-0.56933,1.9108-1.08154,2.50906
			c-0.51565,0.57115-1.14689,0.9128-2.05672,0.9128c-1.28244,0-2.04355-0.88181-2.04354-2.50899
			c0.00002-3.30643,2.354-6.87321,5.26569-6.87321c0.42743,0,0.90887,0.09967,1.10874,0.21777L90.91883,95.73199z
			 M93.55672,82.98719c-0.33582,1.70322-0.96564,4.68092-0.93116,4.51287c-0.34055-0.08292-0.88479-0.12753-1.42506-0.12753
			c-5.44446,0-9.3239,4.42156-9.32391,9.38617c-0.00002,3.05319,1.8775,4.964,4.7354,4.964
			c1.71315,0,3.04247-0.62263,3.83605-1.45293c0.32964,1.03722,1.32768,1.45293,2.47128,1.45293h0.50519l4.47703-21.69772
			C97.60165,79.98621,94.24599,79.49136,93.55672,82.98719z"/>
		<path id="XMLID_77_" class="st61" d="M106.36242,87.37253c-5.19,0-9.32378,4.1971-9.32381,9.41503
			c-0.00001,3.05585,1.73882,4.93513,4.59192,4.93513c1.71254,0,3.06561-0.63371,3.83599-1.46339
			c0.33068,1.06615,1.33675,1.46339,2.47623,1.46339h0.50519l2.69218-13.03828
			C109.68965,87.89148,108.14757,87.37253,106.36242,87.37253z M105.9334,95.73199c-0.22244,1.02671-0.53993,1.9108-1.05131,2.50906
			c-0.51115,0.57115-1.17278,0.9128-2.08695,0.9128c-1.28309,0-1.91317-0.85699-1.91316-2.48196
			c0.00001-2.90851,2.08955-6.90023,5.39954-6.90023c0.33944,0,0.61363,0.09222,0.85133,0.2095L105.9334,95.73199z"/>
		<path id="XMLID_74_" class="st61" d="M121.70108,93.8593c-0.36908,1.73431-0.98223,5.04187-3.64589,5.04187
			c-2.37534,0-1.61991-2.6234-1.47697-3.30756l1.68166-7.97303c0,0-3.60671-0.72841-4.45528,3.23653
			c-0.84857,3.96493-0.9891,4.62099-0.9891,4.62099c-0.17147,0.83286-0.34229,1.68254-0.34229,2.39812
			c0,1.02494,0.36908,1.84584,0.94171,2.47868c-2.19321,0.54166-3.2188,1.67634-3.2188,3.30354
			c0,2.39594,2.36825,3.81647,5.52379,3.81647c2.70746,0,4.84914-0.91162,6.21062-2.4499
			c1.11211-1.25283,1.79869-2.96458,2.31248-5.38351l2.56142-12.02094c0,0-3.63148-0.61024-4.40504,2.99179
			C121.62583,94.21444,121.70108,93.8593,121.70108,93.8593z M120.02252,101.40726c-0.28567,1.11652-0.79947,2.1087-1.53629,2.82562
			c-0.7114,0.6784-1.68188,1.04839-2.73623,1.04839c-1.31079,0-2.39391-0.62666-2.39391-1.7383
			c0-1.42055,1.39754-1.76574,3.44826-1.99542c1.45554-0.16507,2.73624-0.51246,3.4724-1.16608L120.02252,101.40726z"/>
		<path id="XMLID_69_" class="st61" d="M169.54158,88.21025c0,0.12946-0.05859,0.21735-0.23721,0.21735h-0.16869v-0.41865h0.1427
			C169.45699,88.00896,169.54158,88.05762,169.54158,88.21025 M169.79814,88.8335c-0.02599,0.01606-0.05858,0.02599-0.08458,0.02599
			c-0.02267,0-0.03922-0.00661-0.0652-0.05198l-0.14931-0.26318c0.15923-0.04868,0.24051-0.16869,0.24051-0.34068
			c0-0.23389-0.17531-0.34116-0.4352-0.34116h-0.45456v0.14648h0.09404v0.98661h0.19183V88.5703h0.17531l0.18192,0.31847
			c0.04868,0.08742,0.10065,0.1134,0.18475,0.1134c0.03922,0,0.08127-0.01607,0.11057-0.03544L169.79814,88.8335z
			 M170.19081,88.4276c0,0.57127-0.35391,0.91242-0.87651,0.91242c-0.52309,0-0.877-0.34116-0.877-0.91242
			s0.35391-0.91242,0.877-0.91242C169.8369,87.51518,170.19081,87.85634,170.19081,88.4276 M170.3661,88.4276
			c0-0.62656-0.41251-1.05512-1.0518-1.05512c-0.63979,0-1.0556,0.42857-1.0556,1.05512s0.41582,1.05843,1.0556,1.05843
			C169.9536,89.48604,170.3661,89.05416,170.3661,88.4276"/>
		<path id="XMLID_64_" class="st61" d="M116.93105,31.07578c0,0.12947-0.05859,0.21736-0.23721,0.21736h-0.16869v-0.41865h0.1427
			C116.84646,30.87449,116.93105,30.92316,116.93105,31.07578 M117.18761,31.69903
			c-0.02599,0.01607-0.05859,0.02599-0.08458,0.02599c-0.02268,0-0.03922-0.00662-0.06521-0.05198l-0.14931-0.26319
			c0.15923-0.04867,0.24051-0.16869,0.24051-0.34068c0-0.23389-0.17531-0.34116-0.43519-0.34116h-0.45456v0.14648h0.09403v0.98661
			h0.19184v-0.42526h0.1753l0.18192,0.31847c0.04868,0.08742,0.10065,0.1134,0.18475,0.1134
			c0.03922,0,0.08128-0.01607,0.11057-0.03544L117.18761,31.69903z M117.58028,31.29314c0,0.57127-0.35391,0.91242-0.87651,0.91242
			c-0.52308,0-0.87699-0.34115-0.87699-0.91242c0-0.57127,0.35391-0.91242,0.87699-0.91242
			C117.22636,30.38071,117.58028,30.72187,117.58028,31.29314 M117.75558,31.29314c0-0.62655-0.41251-1.05512-1.05181-1.05512
			c-0.63979,0-1.0556,0.42857-1.0556,1.05512c0,0.62655,0.41581,1.05843,1.0556,1.05843
			C117.34307,32.35157,117.75558,31.91969,117.75558,31.29314"/>
	</g>
</g>
<g id="Layer_3">
</g>
</svg>
